<?xml version="1.0" encoding="utf-8"?>
<svg width="643" height="853" viewBox="0 0 643 853" xmlns="http://www.w3.org/2000/svg">
<rect id="frame" x="0" y="0" width="643" height="853" fill="#ffffbf" stroke="none" stroke-width="0"/>

<!-- Association prod belongs to tva -->
<g class="page_0_uLKknjfD diagram_page" visibility="visible">
	<line x1="76" y1="261" x2="76" y2="143" stroke="#f46d43" stroke-width="2"/>
	<text x="50" y="185" fill="#3288bd" font-family="Verdana" font-size="12">1,1</text>
	<line x1="76" y1="51" x2="76" y2="143" stroke="#f46d43" stroke-width="2"/>
	<text x="81" y="110" fill="#3288bd" font-family="Verdana" font-size="12">0,N</text>
	<g>
		<path d="M129 118 a14 14 90 0 1 14 14 V143 h-134 V132 a14 14 90 0 1 14 -14" fill="#fdae61" stroke="#fdae61" stroke-width="0"/>
		<path d="M143 143 v11 a14 14 90 0 1 -14 14 H23 a14 14 90 0 1 -14 -14 V143 H134" fill="#fee08b" stroke="#fee08b" stroke-width="0"/>
		<rect x="9" y="118" width="134" height="50" fill="none" rx="14" stroke="#f46d43" stroke-width="2"/>
		<line x1="9" y1="143" x2="143" y2="143" stroke="#f46d43" stroke-width="1"/>
		<text x="17" y="135.75" fill="#000" font-family="Verdana" font-size="12">prod belongs to tva</text>
	</g>
</g>

<!-- Association prod belongs to cat -->
<g class="page_0_uLKknjfD diagram_page" visibility="visible">
	<line x1="76" y1="261" x2="241" y2="143" stroke="#f46d43" stroke-width="2"/>
	<text x="120" y="244.68" fill="#3288bd" font-family="Verdana" font-size="12">1,1</text>
	<line x1="385" y1="143" x2="241" y2="143" stroke="#f46d43" stroke-width="2"/>
	<text x="312" y="160" fill="#3288bd" font-family="Verdana" font-size="12">0,N</text>
	<g>
		<path d="M293 118 a14 14 90 0 1 14 14 V143 h-132 V132 a14 14 90 0 1 14 -14" fill="#fdae61" stroke="#fdae61" stroke-width="0"/>
		<path d="M307 143 v11 a14 14 90 0 1 -14 14 H189 a14 14 90 0 1 -14 -14 V143 H132" fill="#fee08b" stroke="#fee08b" stroke-width="0"/>
		<rect x="175" y="118" width="132" height="50" fill="none" rx="14" stroke="#f46d43" stroke-width="2"/>
		<line x1="175" y1="143" x2="307" y2="143" stroke="#f46d43" stroke-width="1"/>
		<text x="182" y="135.75" fill="#000" font-family="Verdana" font-size="12">prod belongs to cat</text>
	</g>
</g>

<!-- Association tva created by -->
<g class="page_0_uLKknjfD diagram_page" visibility="visible">
	<line x1="76" y1="261" x2="241" y2="261" stroke="#f46d43" stroke-width="2"/>
	<text x="120" y="278" fill="#3288bd" font-family="Verdana" font-size="12">1,1</text>
	<line x1="385" y1="413" x2="241" y2="261" stroke="#f46d43" stroke-width="2"/>
	<text x="320" y="383.09" fill="#3288bd" font-family="Verdana" font-size="12">0,N</text>
	<g>
		<path d="M278 236 a14 14 90 0 1 14 14 V261 h-102 V250 a14 14 90 0 1 14 -14" fill="#fdae61" stroke="#fdae61" stroke-width="0"/>
		<path d="M292 261 v11 a14 14 90 0 1 -14 14 H204 a14 14 90 0 1 -14 -14 V261 H102" fill="#fee08b" stroke="#fee08b" stroke-width="0"/>
		<rect x="190" y="236" width="102" height="50" fill="none" rx="14" stroke="#f46d43" stroke-width="2"/>
		<line x1="190" y1="261" x2="292" y2="261" stroke="#f46d43" stroke-width="1"/>
		<text x="197" y="253.75" fill="#000" font-family="Verdana" font-size="12">tva created by</text>
	</g>
</g>

<!-- Association cat created by -->
<g class="page_0_uLKknjfD diagram_page" visibility="visible">
	<line x1="385" y1="143" x2="385" y2="261" stroke="#f46d43" stroke-width="2"/>
	<text x="390" y="194" fill="#3288bd" font-family="Verdana" font-size="12">1,1</text>
	<line x1="385" y1="413" x2="385" y2="261" stroke="#f46d43" stroke-width="2"/>
	<text x="390" y="337" fill="#3288bd" font-family="Verdana" font-size="12">0,N</text>
	<g>
		<path d="M422 236 a14 14 90 0 1 14 14 V261 h-102 V250 a14 14 90 0 1 14 -14" fill="#fdae61" stroke="#fdae61" stroke-width="0"/>
		<path d="M436 261 v11 a14 14 90 0 1 -14 14 H348 a14 14 90 0 1 -14 -14 V261 H102" fill="#fee08b" stroke="#fee08b" stroke-width="0"/>
		<rect x="334" y="236" width="102" height="50" fill="none" rx="14" stroke="#f46d43" stroke-width="2"/>
		<line x1="334" y1="261" x2="436" y2="261" stroke="#f46d43" stroke-width="1"/>
		<text x="342" y="253.75" fill="#000" font-family="Verdana" font-size="12">cat created by</text>
	</g>
</g>

<!-- Association ORDER_PRODUCT -->
<g class="page_0_uLKknjfD diagram_page" visibility="visible">
	<line x1="241" y1="531" x2="76" y2="413" stroke="#f46d43" stroke-width="2"/>
	<text x="177" y="515.39" fill="#3288bd" font-family="Verdana" font-size="12">1,1</text>
	<line x1="76" y1="261" x2="76" y2="413" stroke="#f46d43" stroke-width="2"/>
	<text x="50" y="346" fill="#3288bd" font-family="Verdana" font-size="12">1,1</text>
	<g>
		<path d="M124 354 a14 14 90 0 1 14 14 V379 h-124 V368 a14 14 90 0 1 14 -14" fill="#fdae61" stroke="#fdae61" stroke-width="0"/>
		<path d="M138 379 v79 a14 14 90 0 1 -14 14 H28 a14 14 90 0 1 -14 -14 V379 H124" fill="#fee08b" stroke="#fee08b" stroke-width="0"/>
		<rect x="14" y="354" width="124" height="118" fill="none" rx="14" stroke="#f46d43" stroke-width="2"/>
		<line x1="14" y1="379" x2="138" y2="379" stroke="#f46d43" stroke-width="1"/>
		<text x="21" y="371.75" fill="#000" font-family="Verdana" font-size="12">ORDER_PRODUCT</text>
		<text x="21" y="396.8" fill="#000" font-family="Verdana" font-size="12">products_id</text>
		<text x="21" y="413.8" fill="#000" font-family="Verdana" font-size="12">order_id</text>
		<text x="21" y="430.8" fill="#000" font-family="Verdana" font-size="12">quantity</text>
		<text x="21" y="447.8" fill="#000" font-family="Verdana" font-size="12">priceHT</text>
		<text x="21" y="464.8" fill="#000" font-family="Verdana" font-size="12">tva</text>
	</g>
</g>

<!-- Association prod created by -->
<g class="page_0_uLKknjfD diagram_page" visibility="visible">
	<line x1="76" y1="261" x2="241" y2="413" stroke="#f46d43" stroke-width="2"/>
	<text x="120" y="295.59" fill="#3288bd" font-family="Verdana" font-size="12">1,1</text>
	<line x1="385" y1="413" x2="241" y2="413" stroke="#f46d43" stroke-width="2"/>
	<text x="320" y="430" fill="#3288bd" font-family="Verdana" font-size="12">0,N</text>
	<g>
		<path d="M283 388 a14 14 90 0 1 14 14 V413 h-112 V402 a14 14 90 0 1 14 -14" fill="#fdae61" stroke="#fdae61" stroke-width="0"/>
		<path d="M297 413 v11 a14 14 90 0 1 -14 14 H199 a14 14 90 0 1 -14 -14 V413 H112" fill="#fee08b" stroke="#fee08b" stroke-width="0"/>
		<rect x="185" y="388" width="112" height="50" fill="none" rx="14" stroke="#f46d43" stroke-width="2"/>
		<line x1="185" y1="413" x2="297" y2="413" stroke="#f46d43" stroke-width="1"/>
		<text x="193" y="405.75" fill="#000" font-family="Verdana" font-size="12">prod created by</text>
	</g>
</g>

<!-- Association has role -->
<g class="page_0_uLKknjfD diagram_page" visibility="visible">
	<line x1="564" y1="261" x2="564" y2="413" stroke="#f46d43" stroke-width="2"/>
	<text x="569" y="312" fill="#3288bd" font-family="Verdana" font-size="12">0,N</text>
	<line x1="385" y1="413" x2="564" y2="413" stroke="#f46d43" stroke-width="2"/>
	<text x="428" y="405" fill="#3288bd" font-family="Verdana" font-size="12">1,1</text>
	<g>
		<path d="M582 388 a14 14 90 0 1 14 14 V413 h-64 V402 a14 14 90 0 1 14 -14" fill="#fdae61" stroke="#fdae61" stroke-width="0"/>
		<path d="M596 413 v11 a14 14 90 0 1 -14 14 H546 a14 14 90 0 1 -14 -14 V413 H64" fill="#fee08b" stroke="#fee08b" stroke-width="0"/>
		<rect x="532" y="388" width="64" height="50" fill="none" rx="14" stroke="#f46d43" stroke-width="2"/>
		<line x1="532" y1="413" x2="596" y2="413" stroke="#f46d43" stroke-width="1"/>
		<text x="540" y="405.75" fill="#000" font-family="Verdana" font-size="12">has role</text>
	</g>
</g>

<!-- Association ordered -->
<g class="page_0_uLKknjfD diagram_page" visibility="visible">
	<line x1="385" y1="413" x2="385" y2="531" stroke="#f46d43" stroke-width="2"/>
	<text x="358" y="498" fill="#3288bd" font-family="Verdana" font-size="12">0,N</text>
	<line x1="241" y1="531" x2="385" y2="531" stroke="#f46d43" stroke-width="2"/>
	<text x="284" y="523" fill="#3288bd" font-family="Verdana" font-size="12">1,1</text>
	<g>
		<path d="M402 506 a14 14 90 0 1 14 14 V531 h-62 V520 a14 14 90 0 1 14 -14" fill="#fdae61" stroke="#fdae61" stroke-width="0"/>
		<path d="M416 531 v11 a14 14 90 0 1 -14 14 H368 a14 14 90 0 1 -14 -14 V531 H62" fill="#fee08b" stroke="#fee08b" stroke-width="0"/>
		<rect x="354" y="506" width="62" height="50" fill="none" rx="14" stroke="#f46d43" stroke-width="2"/>
		<line x1="354" y1="531" x2="416" y2="531" stroke="#f46d43" stroke-width="1"/>
		<text x="361" y="523.75" fill="#000" font-family="Verdana" font-size="12">ordered</text>
	</g>
</g>

<!-- Association has adress -->
<g class="page_0_uLKknjfD diagram_page" visibility="visible">
	<line x1="385" y1="413" x2="564" y2="531" stroke="#f46d43" stroke-width="2"/>
	<text x="428" y="435.11" fill="#3288bd" font-family="Verdana" font-size="12">0,N</text>
	<line x1="564" y1="683" x2="564" y2="531" stroke="#f46d43" stroke-width="2"/>
	<text x="569" y="573" fill="#3288bd" font-family="Verdana" font-size="12">0,1</text>
	<g>
		<path d="M590 506 a14 14 90 0 1 14 14 V531 h-80 V520 a14 14 90 0 1 14 -14" fill="#fdae61" stroke="#fdae61" stroke-width="0"/>
		<path d="M604 531 v11 a14 14 90 0 1 -14 14 H538 a14 14 90 0 1 -14 -14 V531 H80" fill="#fee08b" stroke="#fee08b" stroke-width="0"/>
		<rect x="524" y="506" width="80" height="50" fill="none" rx="14" stroke="#f46d43" stroke-width="2"/>
		<line x1="524" y1="531" x2="604" y2="531" stroke="#f46d43" stroke-width="1"/>
		<text x="531" y="523.75" fill="#000" font-family="Verdana" font-size="12">has adress</text>
	</g>
</g>

<!-- Association has state -->
<g class="page_0_uLKknjfD diagram_page" visibility="visible">
	<line x1="241" y1="531" x2="241" y2="683" stroke="#f46d43" stroke-width="2"/>
	<text x="215" y="616" fill="#3288bd" font-family="Verdana" font-size="12">1,1</text>
	<line x1="241" y1="810" x2="241" y2="683" stroke="#f46d43" stroke-width="2"/>
	<text x="246" y="768" fill="#3288bd" font-family="Verdana" font-size="12">0,N</text>
	<g>
		<path d="M262 658 a14 14 90 0 1 14 14 V683 h-70 V672 a14 14 90 0 1 14 -14" fill="#fdae61" stroke="#fdae61" stroke-width="0"/>
		<path d="M276 683 v11 a14 14 90 0 1 -14 14 H220 a14 14 90 0 1 -14 -14 V683 H70" fill="#fee08b" stroke="#fee08b" stroke-width="0"/>
		<rect x="206" y="658" width="70" height="50" fill="none" rx="14" stroke="#f46d43" stroke-width="2"/>
		<line x1="206" y1="683" x2="276" y2="683" stroke="#f46d43" stroke-width="1"/>
		<text x="213" y="675.75" fill="#000" font-family="Verdana" font-size="12">has state</text>
	</g>
</g>

<!-- Association ORDER_ADRESS_TYPE -->
<g class="page_0_uLKknjfD diagram_page" visibility="visible">
	<line x1="241" y1="531" x2="385" y2="683" stroke="#f46d43" stroke-width="2"/>
	<text x="284" y="569.91" fill="#3288bd" font-family="Verdana" font-size="12">1,1</text>
	<line x1="564" y1="683" x2="385" y2="683" stroke="#f46d43" stroke-width="2"/>
	<text x="468" y="700" fill="#3288bd" font-family="Verdana" font-size="12">1,1</text>
	<line x1="385" y1="810" x2="385" y2="683" stroke="#f46d43" stroke-width="2"/>
	<text x="390" y="768" fill="#3288bd" font-family="Verdana" font-size="12">1,1</text>
	<g>
		<path d="M448 641 a14 14 90 0 1 14 14 V666 h-154 V655 a14 14 90 0 1 14 -14" fill="#fdae61" stroke="#fdae61" stroke-width="0"/>
		<path d="M462 666 v45 a14 14 90 0 1 -14 14 H322 a14 14 90 0 1 -14 -14 V666 H154" fill="#fee08b" stroke="#fee08b" stroke-width="0"/>
		<rect x="308" y="641" width="154" height="84" fill="none" rx="14" stroke="#f46d43" stroke-width="2"/>
		<line x1="308" y1="666" x2="462" y2="666" stroke="#f46d43" stroke-width="1"/>
		<text x="316" y="658.75" fill="#000" font-family="Verdana" font-size="12">ORDER_ADRESS_TYPE</text>
		<text x="315" y="683.8" fill="#000" font-family="Verdana" font-size="12">orders_id</text>
		<text x="315" y="700.8" fill="#000" font-family="Verdana" font-size="12">adresses_id</text>
		<text x="315" y="717.8" fill="#000" font-family="Verdana" font-size="12">adress_type_id</text>
	</g>
</g>

<!-- Entity TVA -->
<g class="page_0_uLKknjfD diagram_page" visibility="visible">
	<g>
		<rect x="38" y="9" width="76" height="25" fill="#abdda4" stroke="#abdda4" stroke-width="0" opacity="1"/>
		<rect x="38" y="34" width="76" height="59" fill="#e6f598" stroke="#e6f598" stroke-width="0" opacity="1"/>
		<rect x="38" y="9" width="76" height="84" fill="none" stroke="#66c2a5" stroke-width="2" opacity="1"/>
		<line x1="38" y1="34" x2="114" y2="34" stroke="#66c2a5" stroke-width="1"/>
	</g>
	<text x="64" y="26.75" fill="#000" font-family="Verdana" font-size="12">TVA</text>
	<text x="43" y="51.8" fill="#000" font-family="Verdana" font-size="12">title</text>
	<line x1="43" y1="54" x2="67" y2="54" stroke="#000" stroke-width="1"/>
	<text x="43" y="68.8" fill="#000" font-family="Verdana" font-size="12">value</text>
	<text x="43" y="85.8" fill="#000" font-family="Verdana" font-size="12">created_at</text>
</g>

<!-- Entity CATEGORIES -->
<g class="page_0_uLKknjfD diagram_page" visibility="visible">
	<g>
		<rect x="339" y="109" width="92" height="25" fill="#abdda4" stroke="#abdda4" stroke-width="0" opacity="1"/>
		<rect x="339" y="134" width="92" height="43" fill="#e6f598" stroke="#e6f598" stroke-width="0" opacity="1"/>
		<rect x="339" y="109" width="92" height="68" fill="none" stroke="#66c2a5" stroke-width="2" opacity="1"/>
		<line x1="339" y1="134" x2="431" y2="134" stroke="#66c2a5" stroke-width="1"/>
	</g>
	<text x="345" y="126.75" fill="#000" font-family="Verdana" font-size="12">CATEGORIES</text>
	<text x="344" y="151.8" fill="#000" font-family="Verdana" font-size="12">title</text>
	<line x1="344" y1="154" x2="368" y2="154" stroke="#000" stroke-width="1"/>
	<text x="344" y="168.8" fill="#000" font-family="Verdana" font-size="12">created_at</text>
</g>

<!-- Entity PRODUCTS -->
<g class="page_0_uLKknjfD diagram_page" visibility="visible">
	<g>
		<rect x="37" y="193" width="78" height="25" fill="#abdda4" stroke="#abdda4" stroke-width="0" opacity="1"/>
		<rect x="37" y="218" width="78" height="111" fill="#e6f598" stroke="#e6f598" stroke-width="0" opacity="1"/>
		<rect x="37" y="193" width="78" height="136" fill="none" stroke="#66c2a5" stroke-width="2" opacity="1"/>
		<line x1="37" y1="218" x2="115" y2="218" stroke="#66c2a5" stroke-width="1"/>
	</g>
	<text x="42" y="210.75" fill="#000" font-family="Verdana" font-size="12">PRODUCTS</text>
	<text x="42" y="235.8" fill="#000" font-family="Verdana" font-size="12">ref</text>
	<line x1="42" y1="238" x2="59" y2="238" stroke="#000" stroke-width="1"/>
	<text x="42" y="252.8" fill="#000" font-family="Verdana" font-size="12">title</text>
	<text x="42" y="269.8" fill="#000" font-family="Verdana" font-size="12">description</text>
	<text x="42" y="286.8" fill="#000" font-family="Verdana" font-size="12">image</text>
	<text x="42" y="303.8" fill="#000" font-family="Verdana" font-size="12">priceHT</text>
	<text x="42" y="320.8" fill="#000" font-family="Verdana" font-size="12">created_at</text>
</g>

<!-- Entity ROLES -->
<g class="page_0_uLKknjfD diagram_page" visibility="visible">
	<g>
		<rect x="526" y="227" width="76" height="25" fill="#abdda4" stroke="#abdda4" stroke-width="0" opacity="1"/>
		<rect x="526" y="252" width="76" height="43" fill="#e6f598" stroke="#e6f598" stroke-width="0" opacity="1"/>
		<rect x="526" y="227" width="76" height="68" fill="none" stroke="#66c2a5" stroke-width="2" opacity="1"/>
		<line x1="526" y1="252" x2="602" y2="252" stroke="#66c2a5" stroke-width="1"/>
	</g>
	<text x="544" y="244.75" fill="#000" font-family="Verdana" font-size="12">ROLES</text>
	<text x="531" y="269.8" fill="#000" font-family="Verdana" font-size="12">title</text>
	<line x1="531" y1="272" x2="555" y2="272" stroke="#000" stroke-width="1"/>
	<text x="531" y="286.8" fill="#000" font-family="Verdana" font-size="12">created_at</text>
</g>

<!-- Entity USERS -->
<g class="page_0_uLKknjfD diagram_page" visibility="visible">
	<g>
		<rect x="347" y="345" width="76" height="25" fill="#abdda4" stroke="#abdda4" stroke-width="0" opacity="1"/>
		<rect x="347" y="370" width="76" height="111" fill="#e6f598" stroke="#e6f598" stroke-width="0" opacity="1"/>
		<rect x="347" y="345" width="76" height="136" fill="none" stroke="#66c2a5" stroke-width="2" opacity="1"/>
		<line x1="347" y1="370" x2="423" y2="370" stroke="#66c2a5" stroke-width="1"/>
	</g>
	<text x="364" y="362.75" fill="#000" font-family="Verdana" font-size="12">USERS</text>
	<text x="352" y="387.8" fill="#000" font-family="Verdana" font-size="12">firstname</text>
	<line x1="352" y1="390" x2="410" y2="390" stroke="#000" stroke-width="1"/>
	<text x="352" y="404.8" fill="#000" font-family="Verdana" font-size="12">lastname</text>
	<text x="352" y="421.8" fill="#000" font-family="Verdana" font-size="12">email</text>
	<text x="352" y="438.8" fill="#000" font-family="Verdana" font-size="12">password</text>
	<text x="352" y="455.8" fill="#000" font-family="Verdana" font-size="12">phone</text>
	<text x="352" y="472.8" fill="#000" font-family="Verdana" font-size="12">created_at</text>
</g>

<!-- Entity ORDERS -->
<g class="page_0_uLKknjfD diagram_page" visibility="visible">
	<g>
		<rect x="203" y="463" width="76" height="25" fill="#abdda4" stroke="#abdda4" stroke-width="0" opacity="1"/>
		<rect x="203" y="488" width="76" height="111" fill="#e6f598" stroke="#e6f598" stroke-width="0" opacity="1"/>
		<rect x="203" y="463" width="76" height="136" fill="none" stroke="#66c2a5" stroke-width="2" opacity="1"/>
		<line x1="203" y1="488" x2="279" y2="488" stroke="#66c2a5" stroke-width="1"/>
	</g>
	<text x="215" y="480.75" fill="#000" font-family="Verdana" font-size="12">ORDERS</text>
	<text x="208" y="505.8" fill="#000" font-family="Verdana" font-size="12">totalTTC</text>
	<line x1="208" y1="508" x2="259" y2="508" stroke="#000" stroke-width="1"/>
	<text x="208" y="522.8" fill="#000" font-family="Verdana" font-size="12">totalHT</text>
	<text x="208" y="539.8" fill="#000" font-family="Verdana" font-size="12">tax</text>
	<text x="208" y="556.8" fill="#000" font-family="Verdana" font-size="12">quantity</text>
	<text x="208" y="573.8" fill="#000" font-family="Verdana" font-size="12">shipping</text>
	<text x="208" y="590.8" fill="#000" font-family="Verdana" font-size="12">created_at</text>
</g>

<!-- Entity ADRESSES -->
<g class="page_0_uLKknjfD diagram_page" visibility="visible">
	<g>
		<rect x="494" y="581" width="140" height="25" fill="#abdda4" stroke="#abdda4" stroke-width="0" opacity="1"/>
		<rect x="494" y="606" width="140" height="179" fill="#e6f598" stroke="#e6f598" stroke-width="0" opacity="1"/>
		<rect x="494" y="581" width="140" height="204" fill="none" stroke="#66c2a5" stroke-width="2" opacity="1"/>
		<line x1="494" y1="606" x2="634" y2="606" stroke="#66c2a5" stroke-width="1"/>
	</g>
	<text x="531" y="598.75" fill="#000" font-family="Verdana" font-size="12">ADRESSES</text>
	<text x="499" y="623.8" fill="#000" font-family="Verdana" font-size="12">entitled</text>
	<line x1="499" y1="626" x2="545" y2="626" stroke="#000" stroke-width="1"/>
	<text x="499" y="640.8" fill="#000" font-family="Verdana" font-size="12">number</text>
	<text x="499" y="657.8" fill="#000" font-family="Verdana" font-size="12">number_complement</text>
	<text x="499" y="674.8" fill="#000" font-family="Verdana" font-size="12">street</text>
	<text x="499" y="691.8" fill="#000" font-family="Verdana" font-size="12">postal_code</text>
	<text x="499" y="708.8" fill="#000" font-family="Verdana" font-size="12">city</text>
	<text x="499" y="725.8" fill="#000" font-family="Verdana" font-size="12">country</text>
	<text x="499" y="742.8" fill="#000" font-family="Verdana" font-size="12">complement</text>
	<text x="499" y="759.8" fill="#000" font-family="Verdana" font-size="12">active</text>
	<text x="499" y="776.8" fill="#000" font-family="Verdana" font-size="12">created_at</text>
</g>

<!-- Entity ORDER_STATES -->
<g class="page_0_uLKknjfD diagram_page" visibility="visible">
	<g>
		<rect x="186" y="776" width="110" height="25" fill="#abdda4" stroke="#abdda4" stroke-width="0" opacity="1"/>
		<rect x="186" y="801" width="110" height="43" fill="#e6f598" stroke="#e6f598" stroke-width="0" opacity="1"/>
		<rect x="186" y="776" width="110" height="68" fill="none" stroke="#66c2a5" stroke-width="2" opacity="1"/>
		<line x1="186" y1="801" x2="296" y2="801" stroke="#66c2a5" stroke-width="1"/>
	</g>
	<text x="192" y="793.75" fill="#000" font-family="Verdana" font-size="12">ORDER_STATES</text>
	<text x="191" y="818.8" fill="#000" font-family="Verdana" font-size="12">title</text>
	<line x1="191" y1="821" x2="215" y2="821" stroke="#000" stroke-width="1"/>
	<text x="191" y="835.8" fill="#000" font-family="Verdana" font-size="12">created_at</text>
</g>

<!-- Entity ADRESS_TYPE -->
<g class="page_0_uLKknjfD diagram_page" visibility="visible">
	<g>
		<rect x="336" y="776" width="98" height="25" fill="#abdda4" stroke="#abdda4" stroke-width="0" opacity="1"/>
		<rect x="336" y="801" width="98" height="43" fill="#e6f598" stroke="#e6f598" stroke-width="0" opacity="1"/>
		<rect x="336" y="776" width="98" height="68" fill="none" stroke="#66c2a5" stroke-width="2" opacity="1"/>
		<line x1="336" y1="801" x2="434" y2="801" stroke="#66c2a5" stroke-width="1"/>
	</g>
	<text x="341" y="793.75" fill="#000" font-family="Verdana" font-size="12">ADRESS_TYPE</text>
	<text x="341" y="818.8" fill="#000" font-family="Verdana" font-size="12">title</text>
	<line x1="341" y1="821" x2="365" y2="821" stroke="#000" stroke-width="1"/>
	<text x="341" y="835.8" fill="#000" font-family="Verdana" font-size="12">created_at</text>
</g>
</svg>